<svg width="38" height="49" viewBox="0 0 38 49" fill="none" xmlns="http://www.w3.org/2000/svg">
<circle cx="18.9" cy="25.2" r="18.9" fill="#071952"/>
<path d="M27.2832 31.6175C27.2832 32.9167 26.992 34.0031 26.4096 34.8767C25.8272 35.7279 25.0544 36.3999 24.0912 36.8927C23.1504 37.3855 22.12 37.7327 21 37.9343C19.88 38.1359 18.7824 38.2367 17.7072 38.2367C16.8784 38.2367 16.0832 38.1135 15.3216 37.8671C14.56 37.6431 13.7872 37.3855 13.0032 37.0943C12.6224 36.9599 12.2416 36.8815 11.8608 36.8591C11.5024 36.8143 11.1216 36.7919 10.7184 36.7919C10.6512 36.2543 10.584 35.7279 10.5168 35.2127C10.4496 34.6751 10.3712 34.1375 10.2816 33.5999C10.2368 33.2191 10.1808 32.8495 10.1136 32.4911C10.0464 32.1327 10.0128 31.7743 10.0128 31.4159C10.0128 31.1023 10.0688 30.8447 10.1808 30.6431C10.3152 30.4415 10.5504 30.3407 10.8864 30.3407C11.2 30.3407 11.4352 30.4079 11.592 30.5423C11.7712 30.6543 11.9056 30.8559 11.9952 31.1471C12.152 31.5503 12.2752 31.9647 12.3648 32.3903C12.4768 32.8159 12.6112 33.2415 12.768 33.6671C13.1488 34.7199 13.7648 35.5599 14.616 36.1871C15.4896 36.8143 16.5088 37.1279 17.6736 37.1279C19.2416 37.1279 20.44 36.6799 21.2688 35.7839C22.12 34.8655 22.5456 33.6335 22.5456 32.0879C22.5456 31.1919 22.3552 30.4527 21.9744 29.8703C21.5936 29.2655 21.1008 28.7503 20.496 28.3247C19.8912 27.8991 19.2416 27.4959 18.5472 27.1151C17.8976 26.7567 17.2368 26.4207 16.5648 26.1071C15.8928 25.7935 15.232 25.4687 14.5824 25.1327C13.8656 24.7519 13.16 24.2815 12.4656 23.7215C11.7936 23.1391 11.2336 22.4783 10.7856 21.7391C10.36 20.9775 10.1472 20.1599 10.1472 19.2863C10.1472 17.8079 10.528 16.5871 11.2896 15.6239C12.0736 14.6607 13.0704 13.9439 14.28 13.4735C15.512 13.0031 16.7888 12.7679 18.1104 12.7679C18.9616 12.7679 19.7792 12.8911 20.5632 13.1375C21.3696 13.3615 22.1536 13.6303 22.9152 13.9439C23.1616 14.0335 23.3856 14.1007 23.5872 14.1455C23.8112 14.1903 24.0464 14.2127 24.2928 14.2127C24.472 14.2127 24.64 14.2127 24.7968 14.2127C24.9536 14.1903 25.1104 14.1679 25.2672 14.1455C25.3344 14.8623 25.4128 15.5791 25.5024 16.2959C25.592 17.0127 25.6816 17.7295 25.7712 18.4463C25.7936 18.5583 25.8048 18.6815 25.8048 18.8159C25.8272 18.9279 25.8384 19.0399 25.8384 19.1519C25.8384 19.4655 25.7712 19.7567 25.6368 20.0255C25.5024 20.2719 25.2448 20.3951 24.864 20.3951C24.5728 20.3951 24.36 20.3279 24.2256 20.1935C24.0912 20.0591 23.968 19.8687 23.856 19.6223C23.5872 18.9279 23.3296 18.2447 23.0832 17.5727C22.8368 16.9007 22.4784 16.2735 22.008 15.6911C21.5152 15.0639 20.8992 14.6047 20.16 14.3135C19.4208 13.9999 18.6592 13.8431 17.8752 13.8431C17.1136 13.8431 16.4752 14.0559 15.96 14.4815C15.4448 14.8847 15.064 15.4111 14.8176 16.0607C14.5712 16.7103 14.448 17.3823 14.448 18.0767C14.448 19.1519 14.728 19.9919 15.288 20.5967C15.8704 21.1791 16.5872 21.7167 17.4384 22.2095C17.9088 22.4559 18.3792 22.7023 18.8496 22.9487C19.3424 23.1727 19.824 23.3967 20.2944 23.6207C21.4144 24.1359 22.5008 24.7631 23.5536 25.5023C24.6288 26.2191 25.5136 27.0815 26.208 28.0895C26.9248 29.0751 27.2832 30.2511 27.2832 31.6175Z" fill="#FF005C"/>
</svg>
