<svg width="247" height="43" viewBox="0 0 247 43" fill="none" xmlns="http://www.w3.org/2000/svg">
<path d="M242.115 35.2967C242.115 35.6551 241.892 35.8343 241.448 35.8343C240.69 35.8343 239.933 35.8007 239.175 35.7335C238.417 35.6887 237.659 35.6663 236.901 35.6663C236.143 35.6663 235.373 35.6887 234.589 35.7335C233.831 35.8007 233.06 35.8343 232.276 35.8343C232.119 35.8343 231.989 35.7783 231.884 35.6663C231.806 35.5319 231.766 35.4087 231.766 35.2967C231.766 34.9607 232.002 34.7927 232.472 34.7927C232.681 34.7927 232.89 34.8039 233.099 34.8263C233.334 34.8263 233.556 34.8263 233.765 34.8263C234.079 34.8263 234.262 34.7479 234.314 34.5911C234.366 34.4119 234.393 34.2103 234.393 33.9863V24.0071C234.393 23.4023 234.366 22.7415 234.314 22.0247C234.288 21.2855 234.131 20.6359 233.844 20.0759C233.609 19.5831 233.308 19.2471 232.942 19.0679C232.603 18.8663 232.132 18.7655 231.531 18.7655C230.8 18.7655 230.068 19.0119 229.336 19.5047C228.604 19.9975 228.016 20.4679 227.572 20.9159C227.677 21.3639 227.729 21.8231 227.729 22.2935C227.755 22.7415 227.768 23.1895 227.768 23.6375C227.768 25.3623 227.768 27.0871 227.768 28.8119C227.768 30.5367 227.768 32.2615 227.768 33.9863C227.768 34.2551 227.821 34.4679 227.925 34.6247C228.056 34.7815 228.291 34.8599 228.631 34.8599C228.814 34.8599 228.983 34.8487 229.14 34.8263C229.323 34.8039 229.506 34.7927 229.689 34.7927C230.081 34.7927 230.277 34.9607 230.277 35.2967C230.277 35.6551 230.055 35.8343 229.611 35.8343C228.879 35.8343 228.134 35.8007 227.376 35.7335C226.645 35.6887 225.9 35.6663 225.142 35.6663C224.384 35.6663 223.626 35.6887 222.869 35.7335C222.111 35.8007 221.353 35.8343 220.595 35.8343C220.412 35.8343 220.282 35.7783 220.203 35.6663C220.125 35.5319 220.086 35.4087 220.086 35.2967C220.086 35.0503 220.203 34.9047 220.438 34.8599C220.674 34.7927 220.935 34.7703 221.222 34.7927C221.536 34.8151 221.771 34.8263 221.928 34.8263C222.294 34.8263 222.516 34.7591 222.594 34.6247C222.673 34.4679 222.712 34.2551 222.712 33.9863C222.712 32.3287 222.699 30.6711 222.673 29.0135C222.673 27.3335 222.673 25.6647 222.673 24.0071C222.673 23.4023 222.646 22.7415 222.594 22.0247C222.568 21.2855 222.411 20.6359 222.124 20.0759C221.862 19.5607 221.549 19.2247 221.183 19.0679C220.817 18.9111 220.321 18.8327 219.694 18.8327C219.354 18.8327 218.936 18.9783 218.439 19.2695C217.943 19.5383 217.472 19.8519 217.028 20.2103C216.584 20.5687 216.244 20.8599 216.009 21.0839C216.009 23.2343 216.009 25.3847 216.009 27.5351C216.009 29.6855 216.009 31.8359 216.009 33.9863C216.009 34.2551 216.061 34.4679 216.166 34.6247C216.296 34.7815 216.532 34.8599 216.871 34.8599C217.054 34.8599 217.237 34.8487 217.42 34.8263C217.603 34.8039 217.786 34.7927 217.969 34.7927C218.335 34.7927 218.518 34.9607 218.518 35.2967C218.518 35.6551 218.309 35.8343 217.89 35.8343C217.133 35.8343 216.375 35.8119 215.617 35.7671C214.885 35.7223 214.141 35.6999 213.383 35.6999C212.599 35.6999 211.815 35.7223 211.031 35.7671C210.273 35.8119 209.502 35.8343 208.718 35.8343C208.535 35.8343 208.392 35.7783 208.287 35.6663C208.209 35.5319 208.169 35.4087 208.169 35.2967C208.169 34.9607 208.392 34.7927 208.836 34.7927C209.045 34.7927 209.254 34.8039 209.463 34.8263C209.698 34.8263 209.933 34.8263 210.169 34.8263C210.534 34.8263 210.743 34.6695 210.796 34.3559C210.874 34.0423 210.913 33.7735 210.913 33.5495C210.913 31.4215 210.913 29.2935 210.913 27.1655C210.913 25.0375 210.913 22.9095 210.913 20.7815C210.913 20.5351 210.874 20.2663 210.796 19.9751C210.717 19.6839 210.469 19.5383 210.051 19.5383C209.764 19.5383 209.463 19.5607 209.149 19.6055C208.862 19.6279 208.575 19.6391 208.287 19.6391C208.13 19.6391 207.974 19.6055 207.817 19.5383C207.686 19.4487 207.621 19.3255 207.621 19.1687C207.621 19.0119 207.673 18.8999 207.778 18.8327C207.908 18.7655 208.026 18.7207 208.13 18.6983C208.47 18.6087 208.823 18.5527 209.189 18.5303C209.554 18.5079 209.907 18.4743 210.247 18.4295C210.561 18.3623 211.005 18.2615 211.58 18.1271C212.181 17.9927 212.769 17.8695 213.344 17.7575C213.918 17.6231 214.31 17.5559 214.519 17.5559C214.833 17.5559 215.055 17.6791 215.186 17.9255C215.369 18.1719 215.499 18.4631 215.578 18.7991C215.656 19.1127 215.748 19.4151 215.852 19.7063C216.793 19.0343 217.734 18.5303 218.674 18.1943C219.615 17.8359 220.7 17.6567 221.928 17.6567C222.921 17.6567 223.888 17.8247 224.828 18.1607C225.795 18.4967 226.527 19.0455 227.023 19.8071C227.938 19.1127 228.892 18.5639 229.885 18.1607C230.878 17.7575 231.975 17.5559 233.178 17.5559C234.981 17.5559 236.326 17.7687 237.215 18.1943C238.103 18.6199 238.691 19.2807 238.979 20.1767C239.292 21.0503 239.449 22.2039 239.449 23.6375C239.449 25.3623 239.449 27.0871 239.449 28.8119C239.449 30.5367 239.449 32.2615 239.449 33.9863C239.449 34.3447 239.554 34.5799 239.763 34.6919C239.998 34.8039 240.272 34.8487 240.586 34.8263C240.926 34.8039 241.239 34.7927 241.527 34.7927C241.919 34.7927 242.115 34.9607 242.115 35.2967Z" fill="#FF005C"/>
<path d="M199.542 26.8631C199.542 26.1239 199.476 25.2839 199.346 24.3431C199.241 23.3799 199.006 22.4503 198.64 21.5543C198.274 20.6583 197.739 19.9191 197.033 19.3367C196.354 18.7319 195.426 18.4295 194.25 18.4295C193.179 18.4295 192.316 18.7207 191.663 19.3031C191.01 19.8855 190.5 20.6135 190.134 21.4871C189.795 22.3607 189.559 23.2679 189.429 24.2087C189.298 25.1271 189.233 25.9223 189.233 26.5943C189.233 27.3335 189.285 28.1847 189.389 29.1479C189.52 30.0887 189.768 31.0071 190.134 31.9031C190.5 32.7991 191.036 33.5383 191.741 34.1207C192.447 34.7031 193.388 34.9943 194.564 34.9943C195.661 34.9943 196.537 34.7143 197.19 34.1543C197.869 33.5719 198.379 32.8551 198.719 32.0039C199.058 31.1303 199.28 30.2343 199.385 29.3159C199.489 28.3751 199.542 27.5575 199.542 26.8631ZM204.873 27.0311C204.873 28.7559 204.415 30.2903 203.501 31.6343C202.586 32.9559 201.332 33.9975 199.738 34.7591C198.17 35.5207 196.38 35.9015 194.368 35.9015C192.355 35.9015 190.578 35.4983 189.037 34.6919C187.495 33.8855 186.28 32.7991 185.391 31.4327C184.529 30.0663 184.098 28.5319 184.098 26.8295C184.098 25.0599 184.529 23.4807 185.391 22.0919C186.254 20.6807 187.469 19.5719 189.037 18.7655C190.605 17.9367 192.434 17.5223 194.524 17.5223C196.824 17.5223 198.732 17.9255 200.247 18.7319C201.789 19.5159 202.939 20.6247 203.697 22.0583C204.481 23.4695 204.873 25.1271 204.873 27.0311Z" fill="#FF005C"/>
<path d="M181.901 31.2311C181.901 31.3207 181.875 31.4215 181.823 31.5335C181.77 31.6231 181.718 31.7127 181.666 31.8023C181.117 32.6759 180.372 33.4151 179.432 34.0199C178.517 34.6023 177.498 35.0503 176.374 35.3639C175.25 35.6775 174.127 35.8343 173.003 35.8343C172.036 35.8343 170.978 35.6999 169.828 35.4311C168.678 35.1623 167.685 34.7815 166.849 34.2887C165.49 33.4375 164.484 32.3847 163.831 31.1303C163.204 29.8759 162.89 28.5431 162.89 27.1319C162.89 25.3847 163.282 23.7943 164.066 22.3607C164.85 20.9047 165.987 19.7399 167.476 18.8663C168.992 17.9927 170.821 17.5559 172.964 17.5559C173.748 17.5559 174.493 17.6567 175.198 17.8583C175.407 17.9031 175.734 18.0263 176.178 18.2279C176.649 18.4071 177.106 18.5751 177.55 18.7319C177.994 18.8887 178.269 18.9671 178.373 18.9671C178.661 18.9671 178.935 18.8775 179.196 18.6983C179.484 18.4967 179.706 18.3959 179.863 18.3959C180.02 18.3959 180.098 18.4855 180.098 18.6647C180.15 18.8887 180.176 19.1351 180.176 19.4039C180.176 19.6503 180.189 19.8967 180.215 20.1431C180.242 20.6807 180.281 21.2183 180.333 21.7559C180.411 22.2935 180.451 22.8311 180.451 23.3687C180.451 23.6599 180.398 23.9175 180.294 24.1415C180.189 24.3655 179.941 24.4775 179.549 24.4775C179.288 24.4775 179.092 24.4215 178.961 24.3095C178.831 24.1975 178.739 24.0519 178.687 23.8727C178.373 23.0663 178.047 22.2823 177.707 21.5207C177.393 20.7367 176.858 20.0535 176.1 19.4711C175.812 19.2247 175.394 19.0007 174.845 18.7991C174.323 18.5751 173.852 18.4631 173.434 18.4631C172.337 18.4631 171.435 18.7655 170.73 19.3703C170.024 19.9751 169.462 20.7255 169.044 21.6215C168.626 22.5175 168.326 23.4471 168.143 24.4103C167.986 25.3511 167.907 26.1799 167.907 26.8967C167.907 27.5687 167.999 28.3527 168.182 29.2487C168.365 30.1223 168.665 30.9735 169.083 31.8023C169.502 32.6087 170.05 33.2919 170.73 33.8519C171.409 34.3895 172.258 34.6583 173.278 34.6583C174.244 34.6583 175.224 34.4791 176.217 34.1207C177.21 33.7623 178.047 33.2919 178.726 32.7095C178.935 32.5303 179.144 32.3399 179.353 32.1383C179.588 31.9367 179.797 31.7239 179.98 31.4999C180.059 31.3879 180.137 31.2871 180.215 31.1975C180.294 31.0855 180.385 30.9847 180.49 30.8951C180.699 30.7159 180.908 30.6263 181.117 30.6263C181.326 30.6263 181.509 30.6823 181.666 30.7943C181.823 30.9063 181.901 31.0519 181.901 31.2311Z" fill="#FF005C"/>
<path d="M157.301 32.9449C157.301 33.6393 157.013 34.2441 156.438 34.7593C155.863 35.2745 155.158 35.5321 154.322 35.5321C153.511 35.5321 152.806 35.2745 152.205 34.7593C151.63 34.2441 151.343 33.6393 151.343 32.9449C151.343 32.2281 151.63 31.6233 152.205 31.1305C152.806 30.6153 153.511 30.3577 154.322 30.3577C155.158 30.3577 155.863 30.6153 156.438 31.1305C157.013 31.6233 157.301 32.2281 157.301 32.9449Z" fill="#FF005C"/>
<path d="M147.746 18.1944C147.746 18.508 147.563 18.676 147.197 18.6984C146.831 18.6984 146.517 18.6984 146.256 18.6984C145.916 18.6984 145.642 18.7992 145.433 19.0008C145.224 19.18 145.054 19.3928 144.923 19.6392C143.904 21.5208 142.872 23.3912 141.827 25.2504C140.781 27.1096 139.762 28.98 138.769 30.8616C138.116 32.1608 137.424 33.4712 136.692 34.7928C135.986 36.092 135.255 37.38 134.497 38.6568C134.288 39.0152 134.066 39.3736 133.83 39.732C133.621 40.1128 133.386 40.4936 133.125 40.8744C132.655 41.5016 132.08 41.9496 131.4 42.2184C130.721 42.5096 129.95 42.6552 129.088 42.6552C128.199 42.6552 127.402 42.42 126.697 41.9496C125.991 41.5016 125.638 40.8632 125.638 40.0344C125.638 39.5192 125.86 39.0936 126.305 38.7576C126.775 38.444 127.298 38.2872 127.872 38.2872C128.16 38.2872 128.408 38.332 128.617 38.4216C128.591 39.0488 128.709 39.4856 128.97 39.732C129.231 40.0008 129.728 40.1352 130.459 40.1352C130.695 40.1352 130.93 40.0792 131.165 39.9672C131.4 39.8776 131.609 39.7768 131.792 39.6648C132.027 39.508 132.302 39.228 132.615 38.8248C132.955 38.444 133.256 38.0296 133.517 37.5816C133.804 37.156 133.974 36.82 134.026 36.5736C134.053 36.4616 134.079 36.3384 134.105 36.204C134.131 36.0696 134.144 35.9464 134.144 35.8344C134.144 35.1848 133.961 34.356 133.595 33.348C133.229 32.3176 132.772 31.2312 132.223 30.0888C131.701 28.9464 131.178 27.8712 130.655 26.8632C130.133 25.8328 129.715 24.9816 129.401 24.3096C129.061 23.548 128.696 22.7864 128.304 22.0248C127.938 21.2408 127.494 20.5128 126.971 19.8408C126.683 19.46 126.344 19.2472 125.952 19.2024C125.586 19.1576 125.168 19.1352 124.697 19.1352C124.593 19.1352 124.475 19.1016 124.345 19.0344C124.24 18.9672 124.188 18.8776 124.188 18.7656C124.188 18.452 124.358 18.2616 124.697 18.1944C125.429 18.0824 126.187 18.004 126.971 17.9592C127.781 17.892 128.552 17.8136 129.284 17.724C129.571 17.6792 129.845 17.6456 130.107 17.6232C130.394 17.6008 130.669 17.5896 130.93 17.5896C131.296 17.5896 131.544 17.6568 131.675 17.7912C131.805 17.9032 131.923 18.0824 132.027 18.3288C132.393 19.0008 132.72 19.684 133.007 20.3784C133.321 21.0728 133.621 21.7784 133.909 22.4952C134.458 23.8168 135.033 25.1496 135.634 26.4936C136.235 27.8376 136.783 29.1928 137.28 30.5592C137.489 30.156 137.789 29.5512 138.181 28.7448C138.599 27.916 139.044 27.0088 139.514 26.0232C140.011 25.0152 140.481 24.0184 140.925 23.0328C141.369 22.0472 141.735 21.1736 142.023 20.412C142.31 19.628 142.454 19.0792 142.454 18.7656C142.454 18.6536 142.376 18.5976 142.219 18.5976C142.062 18.5752 141.944 18.564 141.866 18.564C141.605 18.564 141.33 18.5752 141.043 18.5976C140.781 18.5976 140.507 18.5976 140.22 18.5976C140.011 18.5976 139.828 18.5752 139.671 18.5304C139.514 18.4856 139.436 18.3512 139.436 18.1272C139.436 17.8584 139.514 17.7128 139.671 17.6904C139.854 17.668 140.05 17.6568 140.259 17.6568C141.409 17.6568 142.558 17.6568 143.708 17.6568C144.884 17.6344 146.034 17.6232 147.158 17.6232C147.55 17.6232 147.746 17.8136 147.746 18.1944Z" fill="#FF005C"/>
<path d="M125.26 14.5656C125.26 15.1256 124.907 15.4056 124.202 15.4056C123.862 15.4056 123.601 15.2712 123.418 15.0024C123.235 14.7336 123.078 14.3976 122.948 13.9944C122.817 13.5912 122.66 13.188 122.477 12.7848C122.294 12.3816 122.02 12.0456 121.654 11.7768C121.288 11.508 120.766 11.3736 120.086 11.3736C119.485 11.3736 119.015 11.5304 118.675 11.844C118.335 12.1576 118.1 12.5384 117.969 12.9864C117.839 13.412 117.774 13.8376 117.774 14.2632C117.774 15.0248 117.787 15.7864 117.813 16.548C117.865 17.2872 117.904 18.0376 117.93 18.7992H122.36C122.569 18.7992 122.725 18.8552 122.83 18.9672C122.935 19.0792 122.987 19.2136 122.987 19.3704C122.987 19.5272 122.935 19.6728 122.83 19.8072C122.725 19.9416 122.569 20.0088 122.36 20.0088H118.087V25.1832C118.087 26.5048 118.087 27.8376 118.087 29.1816C118.113 30.5256 118.126 31.8584 118.126 33.18C118.126 33.404 118.165 33.7064 118.244 34.0872C118.348 34.468 118.571 34.6584 118.91 34.6584C119.224 34.6584 119.537 34.6584 119.851 34.6584C120.191 34.636 120.517 34.6248 120.831 34.6248C120.988 34.6248 121.131 34.7144 121.262 34.8936C121.393 35.0504 121.458 35.1848 121.458 35.2968C121.458 35.4984 121.367 35.6328 121.184 35.7C121.001 35.7896 120.818 35.8344 120.635 35.8344C119.694 35.8344 118.753 35.812 117.813 35.7672C116.898 35.7448 115.983 35.7336 115.069 35.7336C114.285 35.7336 113.501 35.7448 112.717 35.7672C111.933 35.7896 111.149 35.8008 110.365 35.8008C109.921 35.8008 109.699 35.6104 109.699 35.2296C109.699 34.8936 109.882 34.7032 110.248 34.6584C110.561 34.636 110.875 34.636 111.188 34.6584C111.502 34.6808 111.815 34.692 112.129 34.692C112.573 34.692 112.835 34.5128 112.913 34.1544C112.991 33.7736 113.031 33.4488 113.031 33.18V19.9416H110.992C110.731 19.9416 110.535 20.0312 110.404 20.2104C110.274 20.3672 110.117 20.4456 109.934 20.4456C109.62 20.4456 109.464 20.2888 109.464 19.9752C109.464 19.908 109.503 19.7624 109.581 19.5384C109.66 19.292 109.712 19.1352 109.738 19.068C109.843 18.8216 110.025 18.7208 110.287 18.7656C110.548 18.788 110.796 18.7992 111.032 18.7992H113.031V16.2792C113.031 14.1064 113.658 12.5944 114.912 11.7432C116.166 10.892 117.983 10.4664 120.361 10.4664C121.118 10.4664 121.876 10.612 122.634 10.9032C123.392 11.172 124.058 11.3064 124.633 11.3064C124.764 11.3064 124.868 11.2952 124.947 11.2728C124.999 11.8104 125.064 12.3592 125.143 12.9192C125.221 13.4792 125.26 14.028 125.26 14.5656Z" fill="#FF005C"/>
<path d="M109.199 18.1944C109.199 18.508 109.016 18.676 108.65 18.6984C108.284 18.6984 107.971 18.6984 107.709 18.6984C107.37 18.6984 107.095 18.7992 106.886 19.0008C106.677 19.18 106.507 19.3928 106.377 19.6392C105.357 21.5208 104.325 23.3912 103.28 25.2504C102.235 27.1096 101.216 28.98 100.223 30.8616C99.5693 32.1608 98.8768 33.4712 98.1451 34.7928C97.4396 36.092 96.7079 37.38 95.9501 38.6568C95.741 39.0152 95.5189 39.3736 95.2837 39.732C95.0747 40.1128 94.8395 40.4936 94.5781 40.8744C94.1078 41.5016 93.5329 41.9496 92.8535 42.2184C92.174 42.5096 91.4031 42.6552 90.5408 42.6552C89.6523 42.6552 88.8553 42.42 88.1497 41.9496C87.4442 41.5016 87.0914 40.8632 87.0914 40.0344C87.0914 39.5192 87.3135 39.0936 87.7578 38.7576C88.2281 38.444 88.7508 38.2872 89.3257 38.2872C89.6131 38.2872 89.8614 38.332 90.0704 38.4216C90.0443 39.0488 90.1619 39.4856 90.4232 39.732C90.6845 40.0008 91.181 40.1352 91.9127 40.1352C92.1479 40.1352 92.3831 40.0792 92.6183 39.9672C92.8535 39.8776 93.0625 39.7768 93.2454 39.6648C93.4806 39.508 93.755 39.228 94.0686 38.8248C94.4083 38.444 94.7088 38.0296 94.9701 37.5816C95.2576 37.156 95.4274 36.82 95.4797 36.5736C95.5058 36.4616 95.532 36.3384 95.5581 36.204C95.5842 36.0696 95.5973 35.9464 95.5973 35.8344C95.5973 35.1848 95.4144 34.356 95.0485 33.348C94.6827 32.3176 94.2254 31.2312 93.6766 30.0888C93.154 28.9464 92.6313 27.8712 92.1087 26.8632C91.5861 25.8328 91.168 24.9816 90.8544 24.3096C90.5147 23.548 90.1488 22.7864 89.7569 22.0248C89.391 21.2408 88.9468 20.5128 88.4241 19.8408C88.1367 19.46 87.797 19.2472 87.405 19.2024C87.0392 19.1576 86.6211 19.1352 86.1507 19.1352C86.0462 19.1352 85.9286 19.1016 85.7979 19.0344C85.6934 18.9672 85.6411 18.8776 85.6411 18.7656C85.6411 18.452 85.811 18.2616 86.1507 18.1944C86.8824 18.0824 87.6402 18.004 88.4241 17.9592C89.2342 17.892 90.0051 17.8136 90.7368 17.724C91.0242 17.6792 91.2986 17.6456 91.5599 17.6232C91.8474 17.6008 92.1218 17.5896 92.3831 17.5896C92.7489 17.5896 92.9972 17.6568 93.1278 17.7912C93.2585 17.9032 93.3761 18.0824 93.4806 18.3288C93.8465 19.0008 94.1731 19.684 94.4606 20.3784C94.7741 21.0728 95.0746 21.7784 95.3621 22.4952C95.9109 23.8168 96.4858 25.1496 97.0868 26.4936C97.6878 27.8376 98.2366 29.1928 98.7331 30.5592C98.9421 30.156 99.2427 29.5512 99.6346 28.7448C100.053 27.916 100.497 27.0088 100.967 26.0232C101.464 25.0152 101.934 24.0184 102.378 23.0328C102.823 22.0472 103.189 21.1736 103.476 20.412C103.763 19.628 103.907 19.0792 103.907 18.7656C103.907 18.6536 103.829 18.5976 103.672 18.5976C103.515 18.5752 103.398 18.564 103.319 18.564C103.058 18.564 102.783 18.5752 102.496 18.5976C102.235 18.5976 101.96 18.5976 101.673 18.5976C101.464 18.5976 101.281 18.5752 101.124 18.5304C100.967 18.4856 100.889 18.3512 100.889 18.1272C100.889 17.8584 100.967 17.7128 101.124 17.6904C101.307 17.668 101.503 17.6568 101.712 17.6568C102.862 17.6568 104.012 17.6568 105.161 17.6568C106.337 17.6344 107.487 17.6232 108.611 17.6232C109.003 17.6232 109.199 17.8136 109.199 18.1944Z" fill="#FF005C"/>
<path d="M85.7671 35.1959C85.7671 35.3751 85.6887 35.4983 85.5319 35.5655C85.4013 35.6103 85.2576 35.6439 85.1008 35.6663C84.4736 35.7111 83.8465 35.7335 83.2193 35.7335C82.5921 35.7559 81.978 35.7671 81.377 35.7671C81.0373 35.7671 80.6715 35.7559 80.2795 35.7335C79.9136 35.7111 79.5739 35.6551 79.2603 35.5655C78.9206 35.4759 78.6332 35.3079 78.398 35.0615C78.1628 34.8151 77.9538 34.5575 77.7708 34.2887C76.804 32.8327 75.824 31.3879 74.831 29.9543C73.838 28.5207 72.8842 27.0647 71.9696 25.5863L70.9897 26.1575V33.8855C70.9897 34.2887 71.0811 34.5463 71.2641 34.6583C71.4731 34.7703 71.7344 34.8151 72.048 34.7927C72.3877 34.7479 72.7536 34.7255 73.1455 34.7255C73.5114 34.7255 73.6943 34.9047 73.6943 35.2631C73.6943 35.6215 73.4852 35.8007 73.0671 35.8007C72.3093 35.8007 71.5515 35.7783 70.7937 35.7335C70.062 35.6887 69.3172 35.6663 68.5594 35.6663C67.8016 35.6663 67.0438 35.6887 66.286 35.7335C65.5282 35.8007 64.7703 35.8343 64.0125 35.8343C63.8557 35.8343 63.7251 35.7783 63.6205 35.6663C63.5421 35.5319 63.5029 35.3975 63.5029 35.2631C63.5029 34.9271 63.712 34.7591 64.1301 34.7591C64.3914 34.7591 64.6397 34.7703 64.8749 34.7927C65.11 34.7927 65.3583 34.7927 65.6196 34.7927C65.9332 34.7927 66.1161 34.7031 66.1684 34.5239C66.2206 34.3447 66.2468 34.1431 66.2468 33.9191C66.2729 33.6055 66.286 33.2919 66.286 32.9783C66.3121 32.6647 66.3252 32.3623 66.3252 32.0711V15.7751C66.3252 15.2823 66.3121 14.8007 66.286 14.3303C66.286 13.8599 66.2729 13.3783 66.2468 12.8855C66.2206 12.6391 66.1684 12.3703 66.09 12.0791C66.0377 11.7879 65.8156 11.6423 65.4236 11.6423C65.1623 11.6423 64.901 11.6535 64.6397 11.6759C64.4045 11.6983 64.1562 11.7095 63.8949 11.7095C63.4768 11.7095 63.2678 11.5527 63.2678 11.2391C63.2678 11.0151 63.4115 10.8695 63.6989 10.8023C64.0125 10.7351 64.3392 10.6903 64.6789 10.6679C65.0186 10.6455 65.3452 10.6119 65.6588 10.5671C66.3905 10.4551 67.1091 10.3207 67.8147 10.1639C68.5464 10.0071 69.278 9.85034 70.0097 9.69354C70.0881 9.67114 70.1535 9.65994 70.2057 9.65994C70.2841 9.63754 70.3625 9.62634 70.4409 9.62634C70.8329 9.62634 71.0289 9.77194 71.0289 10.0631C71.0289 12.5719 71.0158 15.0807 70.9897 17.5895C70.9635 20.0759 70.9505 22.5623 70.9505 25.0487C71.8651 24.4439 72.7928 23.8391 73.7335 23.2343C74.6742 22.6071 75.5627 21.9463 76.3989 21.2519C76.7909 20.9159 77.1959 20.5799 77.6141 20.2439C78.0322 19.8855 78.398 19.5159 78.7116 19.1351C78.9206 18.8887 79.0382 18.6535 79.0644 18.4295C79.1166 18.1831 79.1819 17.9815 79.2603 17.8247C79.3649 17.6679 79.587 17.5895 79.9267 17.5895C80.6061 17.5895 81.2856 17.6007 81.965 17.6231C82.6444 17.6231 83.3108 17.6231 83.964 17.6231C84.356 17.6231 84.552 17.7687 84.552 18.0599C84.552 18.3063 84.4606 18.4519 84.2776 18.4967C84.0947 18.5415 83.8987 18.5639 83.6897 18.5639C83.2977 18.5639 82.8796 18.6311 82.4353 18.7655C82.0172 18.8999 81.6645 19.0567 81.377 19.2359C80.384 19.8855 79.4041 20.5687 78.4372 21.2855C77.4965 21.9799 76.5427 22.6855 75.5758 23.4023C75.8371 23.7831 76.2291 24.3655 76.7517 25.1495C77.3005 25.9335 77.9146 26.8071 78.594 27.7703C79.2734 28.7335 79.9659 29.6743 80.6715 30.5927C81.377 31.5111 82.0172 32.3175 82.5921 33.0119C83.1932 33.6839 83.6635 34.1319 84.0032 34.3559C84.2384 34.5127 84.4605 34.6135 84.6696 34.6583C84.8787 34.7031 85.1138 34.7591 85.3752 34.8263C85.6365 34.8935 85.7671 35.0167 85.7671 35.1959Z" fill="#FF005C"/>
<path d="M61.5492 35.2296C61.5492 35.588 61.3401 35.7672 60.922 35.7672C60.1642 35.7672 59.3933 35.7448 58.6093 35.7C57.8515 35.6776 57.0937 35.6664 56.3359 35.6664C55.6042 35.6664 54.8594 35.6776 54.1016 35.7C53.3438 35.7448 52.586 35.7672 51.8282 35.7672C51.6452 35.7672 51.5146 35.7112 51.4362 35.5992C51.3578 35.4648 51.3186 35.3304 51.3186 35.196C51.3186 34.86 51.5277 34.692 51.9458 34.692C52.181 34.692 52.4161 34.7032 52.6513 34.7256C52.8865 34.7256 53.1217 34.7256 53.3569 34.7256C53.7488 34.7256 53.9448 34.58 53.9448 34.2888C53.9448 32.4072 53.9448 30.5256 53.9448 28.644C53.971 26.7624 53.984 24.8808 53.984 22.9992C53.984 22.3944 53.9187 21.7672 53.788 21.1176C53.6835 20.468 53.4222 19.9192 53.0041 19.4712C52.6121 19.0232 51.9588 18.7992 51.0442 18.7992C50.4693 18.7992 49.8683 18.9784 49.2411 19.3368C48.6401 19.6952 48.0913 20.1208 47.5948 20.6136C47.1245 21.1064 46.7848 21.5656 46.5757 21.9912V33.8856C46.5757 34.0872 46.6018 34.2776 46.6541 34.4568C46.7325 34.636 46.9154 34.7256 47.2029 34.7256C47.4119 34.7256 47.621 34.7256 47.83 34.7256C48.0652 34.7032 48.2873 34.692 48.4964 34.692C48.627 34.692 48.7577 34.7368 48.8884 34.8264C49.019 34.916 49.0843 35.0168 49.0843 35.1288C49.0843 35.5544 48.8753 35.7672 48.4572 35.7672C47.7255 35.7672 46.9938 35.7448 46.2621 35.7C45.5566 35.6328 44.8249 35.5992 44.0671 35.5992C43.2831 35.5992 42.4861 35.6328 41.676 35.7C40.8921 35.7448 40.095 35.7672 39.285 35.7672C39.102 35.7672 38.9714 35.7112 38.893 35.5992C38.8146 35.4648 38.7754 35.3304 38.7754 35.196C38.7754 34.86 38.9845 34.692 39.4026 34.692C39.6377 34.692 39.8729 34.7032 40.1081 34.7256C40.3433 34.7256 40.5915 34.7256 40.8529 34.7256C41.2187 34.7256 41.4278 34.6584 41.48 34.524C41.5323 34.3896 41.5584 34.1768 41.5584 33.8856V29.0136C41.5584 27.6472 41.5584 26.2808 41.5584 24.9144C41.5584 23.548 41.5584 22.1816 41.5584 20.8152C41.5584 20.5688 41.5192 20.3 41.4408 20.0088C41.3624 19.6952 41.1272 19.5384 40.7353 19.5384C40.474 19.5384 40.2126 19.5496 39.9513 19.572C39.7161 19.5944 39.4679 19.6056 39.2066 19.6056C39.0498 19.6056 38.8669 19.5832 38.6578 19.5384C38.4749 19.4712 38.3834 19.348 38.3834 19.1688C38.3834 19.0344 38.4357 18.9336 38.5402 18.8664C38.6447 18.7992 38.7623 18.7544 38.893 18.732C39.1543 18.6648 39.4287 18.62 39.7161 18.5976C40.0036 18.5752 40.278 18.5416 40.5393 18.4968C41.2187 18.3848 41.8851 18.2616 42.5384 18.1272C43.2178 17.9704 43.8841 17.8136 44.5374 17.6568C44.642 17.612 44.7465 17.5784 44.851 17.556C44.9555 17.5112 45.0601 17.4888 45.1646 17.4888C45.3736 17.4888 45.5566 17.6568 45.7134 17.9928C45.8963 18.3288 46.04 18.6872 46.1445 19.068C46.2752 19.4488 46.3536 19.7176 46.3797 19.8744C47.1375 19.292 48.0521 18.7768 49.1235 18.3288C50.1949 17.8584 51.2533 17.6232 52.2985 17.6232C54.0494 17.6232 55.4082 17.8136 56.3751 18.1944C57.3681 18.5752 58.0736 19.2136 58.4917 20.1096C58.9099 20.9832 59.1189 22.1592 59.1189 23.6376C59.1189 25.3848 59.1058 27.132 59.0797 28.8792C59.0536 30.6264 59.0405 32.3736 59.0405 34.1208C59.0405 34.3448 59.1189 34.5128 59.2757 34.6248C59.4586 34.7144 59.6807 34.7592 59.9421 34.7592C60.125 34.7592 60.2948 34.748 60.4516 34.7256C60.6345 34.7032 60.8175 34.692 61.0004 34.692C61.3662 34.692 61.5492 34.8712 61.5492 35.2296Z" fill="#FF005C"/>
<path d="M29.4489 32.1385C29.3705 31.0857 29.3182 30.0329 29.2921 28.9801C29.266 27.9049 29.266 26.8297 29.2921 25.7545C28.2207 25.9113 27.1754 26.2025 26.1563 26.6281C25.1633 27.0313 24.3401 27.5801 23.6869 28.2745C23.0336 28.9689 22.7069 29.8537 22.7069 30.9289C22.7069 31.3769 22.7722 31.8585 22.9029 32.3737C23.0597 32.8889 23.321 33.3257 23.6869 33.6841C24.0788 34.0201 24.6015 34.1881 25.2548 34.1881C25.7251 34.1881 26.2216 34.0761 26.7443 33.8521C27.2669 33.6057 27.7634 33.3257 28.2338 33.0121C28.7303 32.6985 29.1353 32.4073 29.4489 32.1385ZM37.5236 34.1209C37.5236 34.2105 37.4713 34.3113 37.3668 34.4233C37.2884 34.5353 37.21 34.6249 37.1316 34.6921C36.3215 35.4985 35.2763 35.9017 33.9958 35.9017C32.8721 35.9017 31.9706 35.6889 31.2912 35.2633C30.6118 34.8377 30.0891 34.1769 29.7233 33.2809C28.8871 34.0425 27.9855 34.6473 27.0186 35.0953C26.0779 35.5433 24.9673 35.7673 23.6869 35.7673C22.7722 35.7673 21.8446 35.5993 20.9038 35.2633C19.9892 34.9049 19.2183 34.4009 18.5912 33.7513C17.9901 33.1017 17.6896 32.3513 17.6896 31.5001C17.6896 30.6489 17.9379 29.8985 18.4344 29.2489C18.957 28.5769 19.6103 28.0057 20.3943 27.5353C21.1782 27.0425 21.9752 26.6393 22.7853 26.3257C23.8306 25.9449 24.902 25.6537 25.9995 25.4521C27.097 25.2281 28.1946 25.0041 29.2921 24.7801V24.6457C29.2921 24.2425 29.279 23.7049 29.2529 23.0329C29.2529 22.3385 29.1745 21.6553 29.0177 20.9833C28.8609 20.2889 28.5996 19.7065 28.2338 19.2361C27.8679 18.7433 27.3322 18.4969 26.6267 18.4969C25.8166 18.4969 25.0849 18.6985 24.4316 19.1017C23.8044 19.5049 23.3602 20.0425 23.0989 20.7145C23.0466 20.9161 23.0074 21.1177 22.9813 21.3193C22.9552 21.4985 22.916 21.6889 22.8637 21.8905C22.8114 22.2489 22.5632 22.4953 22.119 22.6297C21.7008 22.7417 21.3089 22.7977 20.943 22.7977C20.4988 22.7977 20.0676 22.7193 19.6495 22.5625C19.2314 22.3833 19.0224 22.0585 19.0224 21.5881C19.0224 21.4089 19.0485 21.2521 19.1007 21.1177C19.1791 20.9609 19.2575 20.8041 19.3359 20.6473C19.754 19.7961 20.3812 19.1689 21.2174 18.7657C22.0536 18.3625 22.9682 18.0937 23.9612 17.9593C24.9804 17.8249 25.9472 17.7577 26.8619 17.7577C29.0047 17.7577 30.7685 18.2505 32.1535 19.2361C33.5385 20.2217 34.231 21.6777 34.231 23.6041V28.6777C34.2049 29.3049 34.1918 29.9545 34.1918 30.6265C34.2179 31.2761 34.2571 31.9257 34.3094 32.5753C34.3616 32.9561 34.4662 33.3257 34.623 33.6841C34.7798 34.0201 35.1325 34.1881 35.6813 34.1881C36.0471 34.1881 36.3477 34.1209 36.5828 33.9865C36.8442 33.8521 37.0793 33.7849 37.2884 33.7849C37.3929 33.7849 37.4582 33.8297 37.4844 33.9193C37.5105 34.0089 37.5236 34.0761 37.5236 34.1209Z" fill="#FF005C"/>
<path d="M15.4046 30.7608C15.4046 31.8136 15.1433 32.676 14.6207 33.348C14.098 33.9976 13.4055 34.5016 12.5432 34.86C11.6809 35.2184 10.7401 35.4648 9.72098 35.5992C8.72798 35.7336 7.73498 35.8008 6.74197 35.8008C6.08868 35.8008 5.44845 35.7448 4.82129 35.6328C4.19413 35.5208 3.56697 35.3976 2.93981 35.2632C2.6785 35.2184 2.40411 35.1736 2.11667 35.1288C1.82922 35.0616 1.54177 35.028 1.25432 35.028C1.14979 34.7144 0.993004 34.2552 0.78395 33.6504C0.601029 33.0232 0.418107 32.4184 0.235185 31.836C0.078395 31.2312 0 30.8056 0 30.5592C0 30.3128 0.0914609 30.156 0.274383 30.0888C0.457304 30.0216 0.653292 29.988 0.862345 29.988C1.17593 29.988 1.41111 30.0888 1.5679 30.2904C1.95988 30.7608 2.27346 31.2536 2.50864 31.7688C2.74383 32.284 3.10967 32.7656 3.60617 33.2136C3.97201 33.5496 4.49465 33.8968 5.17407 34.2552C5.87963 34.5912 6.50679 34.7592 7.05555 34.7592C8.23148 34.7592 9.10689 34.524 9.68179 34.0536C10.2828 33.5832 10.5833 32.8328 10.5833 31.8024C10.5833 31.108 10.3351 30.5256 9.83858 30.0552C9.34207 29.5848 8.70185 29.1592 7.9179 28.7784C7.16008 28.3976 6.35 28.028 5.48765 27.6696C4.62531 27.2888 3.80216 26.8744 3.01821 26.4264C2.26039 25.9784 1.63323 25.4408 1.13673 24.8136C0.640226 24.164 0.391975 23.38 0.391975 22.4616C0.391975 21.3192 0.757819 20.3896 1.48951 19.6728C2.22119 18.956 3.14887 18.4296 4.27253 18.0936C5.42232 17.7576 6.57212 17.5896 7.72191 17.5896C8.24454 17.5896 8.75411 17.6232 9.25061 17.6904C9.74712 17.7576 10.2436 17.8808 10.7401 18.06C10.9753 18.1272 11.2889 18.2168 11.6809 18.3288C12.099 18.4184 12.4256 18.4632 12.6608 18.4632C13.0005 18.4632 13.3272 18.4296 13.6407 18.3624C13.693 18.9896 13.7714 19.6168 13.8759 20.244C14.0066 20.8712 14.085 21.4984 14.1111 22.1256V22.2264C14.1372 22.4504 14.0588 22.6408 13.8759 22.7976C13.7191 22.932 13.5231 22.9992 13.288 22.9992C13.0266 22.9992 12.8307 22.9544 12.7 22.8648C12.5955 22.7752 12.4909 22.6408 12.3864 22.4616C12.0467 21.812 11.707 21.196 11.3673 20.6136C11.0537 20.0088 10.6225 19.516 10.0738 19.1352C9.55113 18.7544 8.79331 18.564 7.80031 18.564C6.75504 18.564 5.98415 18.9112 5.48765 19.6056C4.99115 20.3 4.7429 21.0392 4.7429 21.8232C4.7429 22.4504 5.01728 22.988 5.56605 23.436C6.11481 23.884 6.67664 24.2424 7.25154 24.5112C7.9571 24.8248 8.76718 25.172 9.68179 25.5528C10.6225 25.9336 11.5241 26.3704 12.3864 26.8632C13.2488 27.356 13.9674 27.9272 14.5423 28.5768C15.1172 29.204 15.4046 29.932 15.4046 30.7608Z" fill="#FF005C"/>
</svg>
